<svg xmlns="http://www.w3.org/2000/svg" viewBox="0 0 483 620"><defs><style>.cls-1{fill:#fff;}.cls-2{fill:#7a9bd1;}.cls-3{fill:#5276ba;}.cls-4{font-size:106.2px;font-family:AlberNew-Medium, Alber New;font-weight:500;}.cls-4,.cls-7{fill:#1d1d1b;}.cls-5{letter-spacing:-0.07em;}.cls-6{fill:none;stroke:#1d1d1b;stroke-miterlimit:10;stroke-width:2px;}.cls-7{font-size:68.43px;font-family:AlberNew-Light, Alber New;font-weight:300;letter-spacing:0.5em;}.cls-8{letter-spacing:0.35em;}.cls-9{fill:#e60281;}</style></defs><g id="Calque_2" data-name="Calque 2"><rect class="cls-1" width="483" height="620"/></g><g id="Calque_1" data-name="Calque 1"><path class="cls-2" d="M201.81,151.59c-36.49-22.5-79.29-32.45-79.29-60.25,0-19.47,20.19-28.77,38.94-28.58,41.6.42,60.88,22.78,60.88,22.78,1.58-2.8,3.34-5.51,5.15-8.1A119,119,0,0,1,246,56.2l.41-.38C225.29,36.35,190.86,27.55,161,27.55c-63.78,0-99,41-99,87.4,0,93.19,125.09,85.32,125.09,141.23,0,24.44-17,36-43.49,36-28.17,0-49.71-13.67-67.52-32.31H71.58l-20.3,28.17c20.71,24,55.92,39.34,96.09,39.34,38.24,0,70.44-13.77,88.78-38.85-22-25.53-35.72-63.09-35.72-111.08A236.33,236.33,0,0,1,201.81,151.59Z"/><path class="cls-3" d="M325.93,166.72l-11.6,35.21h33.13v82.42c-8.69,5-17.81,7.87-27.33,7.87-30.65,0-43.08-19.05-43.08-63.37V128.62c0-44.74,17-65.86,47.63-65.86,24,0,43.08,11.6,58,34.79h4.55l20.71-26.92C388.05,39.56,352,27.55,322.61,27.55c-29.12,0-55.72,9.83-76.61,28.65a146.85,146.85,0,0,0-18.51,21.24c-13.28,19.42-22.37,44.26-25.68,74.15,27.13,16.73,50.77,40.38,50.77,83.47,0,21.21-6,39.2-16.43,53.51,21.83,25.37,51.77,38.85,84.39,38.85,21.95,0,41.42-7,55.5-17l18.64,14.5h24.44V166.72Z"/><text class="cls-4" transform="translate(51.4 432.34)">HÔPI<tspan class="cls-5" x="220.36" y="0">T</tspan><tspan x="268.58" y="0">AL</tspan></text><line class="cls-6" x1="40.26" y1="457" x2="447.01" y2="457"/><text class="cls-7" transform="translate(65.16 520.02) scale(1.17 1)">SAINT<tspan class="cls-8"><tspan x="-4.96" y="66.72">GILLES</tspan></tspan></text><path class="cls-9" d="M412.12,247"/><path class="cls-9" d="M373,204"/></g></svg>